<svg
  width="512"
  height="512"
  viewBox="0 0 512 512"
  fill="none"
  xmlns="http://www.w3.org/2000/svg"
  xmlns:xlink="http://www.w3.org/1999/xlink"
>
  <defs>
    <path
      id="monogram-a"
      d="M128 404L214 116C225 84 287 84 298 116L384 404H332L294 292C288 272 224 272 218 292L180 404Z"
    />
    <path
      id="monogram-w"
      d="M156 320L204 430C214 452 248 452 258 430L276 392L294 430C304 452 338 452 348 430L396 320H348L320 380L292 328C284 312 228 312 220 328L192 380L164 320Z"
    />
    <clipPath id="monogram-clip" clipPathUnits="userSpaceOnUse">
      <use href="#monogram-a" />
      <use href="#monogram-w" />
    </clipPath>
  </defs>
  <rect width="512" height="512" rx="120" fill="#ffffff" />
  <use href="#monogram-a" fill="#0A6DFF" />
  <use href="#monogram-w" fill="#0A6DFF" />
  <path
    d="M150 330C220 210 320 210 374 302"
    stroke="#ffffff"
    stroke-width="70"
    stroke-linecap="round"
    stroke-linejoin="round"
    clip-path="url(#monogram-clip)"
  />
</svg>
